<svg width="80" height="19" viewBox="0 0 80 19" fill="none" xmlns="http://www.w3.org/2000/svg">
<path d="M0.552 5.736H9.624V7.368H0.552V5.736ZM10.416 0.263999V2.04C10.224 1.976 9.96 1.896 9.624 1.8C9.288 1.704 8.928 1.656 8.544 1.656C8.096 1.656 7.704 1.736 7.368 1.896C7.048 2.056 6.792 2.336 6.6 2.736C6.424 3.12 6.336 3.656 6.336 4.344V16.416C6.336 16.464 6.424 16.512 6.6 16.56C6.792 16.592 7.032 16.616 7.32 16.632C7.608 16.632 7.928 16.632 8.28 16.632H8.544V18H0.768V16.632H1.032C1.56 16.632 1.968 16.576 2.256 16.464C2.56 16.352 2.712 16.144 2.712 15.84V4.608C2.712 3.44 2.96 2.528 3.456 1.872C3.968 1.2 4.632 0.719999 5.448 0.431999C6.28 0.143999 7.176 -1.43051e-06 8.136 -1.43051e-06C8.616 -1.43051e-06 9.064 0.0239987 9.48 0.0719991C9.896 0.119999 10.208 0.184 10.416 0.263999ZM24.7054 11.88C24.7054 13.128 24.4254 14.232 23.8654 15.192C23.3054 16.152 22.5134 16.904 21.4894 17.448C20.4814 17.976 19.3054 18.24 17.9614 18.24C16.6014 18.24 15.4094 17.976 14.3854 17.448C13.3774 16.904 12.5934 16.152 12.0334 15.192C11.4894 14.232 11.2174 13.128 11.2174 11.88C11.2174 10.936 11.3694 10.072 11.6734 9.288C11.9934 8.504 12.4494 7.832 13.0414 7.272C13.6494 6.712 14.3614 6.28 15.1774 5.976C16.0094 5.656 16.9374 5.496 17.9614 5.496C18.9694 5.496 19.8814 5.656 20.6974 5.976C21.5294 6.28 22.2414 6.712 22.8334 7.272C23.4414 7.832 23.9054 8.504 24.2254 9.288C24.5454 10.072 24.7054 10.936 24.7054 11.88ZM14.9614 11.88C14.9614 12.856 15.0814 13.696 15.3214 14.4C15.5614 15.104 15.9054 15.64 16.3534 16.008C16.8014 16.376 17.3374 16.56 17.9614 16.56C18.5854 16.56 19.1214 16.376 19.5694 16.008C20.0174 15.64 20.3534 15.104 20.5774 14.4C20.8174 13.696 20.9374 12.856 20.9374 11.88C20.9374 10.872 20.8174 10.024 20.5774 9.336C20.3534 8.648 20.0174 8.12 19.5694 7.752C19.1214 7.384 18.5854 7.2 17.9614 7.2C17.3374 7.2 16.8014 7.384 16.3534 7.752C15.9054 8.12 15.5614 8.648 15.3214 9.336C15.0814 10.024 14.9614 10.872 14.9614 11.88ZM31.8758 5.736V14.064C31.8758 14.544 31.9238 14.944 32.0198 15.264C32.1318 15.568 32.2998 15.792 32.5238 15.936C32.7478 16.08 33.0518 16.152 33.4358 16.152C33.8518 16.152 34.2438 16.056 34.6118 15.864C34.9798 15.656 35.3318 15.352 35.6678 14.952C36.0198 14.536 36.3558 14 36.6758 13.344V15.432C36.3238 16.056 35.9238 16.576 35.4758 16.992C35.0278 17.408 34.5318 17.72 33.9878 17.928C33.4598 18.136 32.8678 18.24 32.2118 18.24C31.4278 18.24 30.7318 18.096 30.1238 17.808C29.5318 17.504 29.0678 17.048 28.7318 16.44C28.4118 15.832 28.2518 15.08 28.2518 14.184V8.088C28.2518 7.8 28.1478 7.6 27.9398 7.488C27.7318 7.376 27.3958 7.28 26.9318 7.2L26.6918 7.152V5.736H31.8758ZM39.8198 5.736V15.816C39.8198 16.008 39.8758 16.16 39.9878 16.272C40.1158 16.368 40.2838 16.44 40.4918 16.488C40.7158 16.536 40.9798 16.568 41.2838 16.584L41.3798 16.608V18H36.4598V15.336L36.1958 15.288V8.088C36.1958 7.8 36.0678 7.6 35.8118 7.488C35.5558 7.376 35.1878 7.288 34.7078 7.224L34.2998 7.152V5.736H39.8198ZM52.5274 5.664V8.856C52.4154 8.824 52.2794 8.792 52.1194 8.76C51.9754 8.728 51.8154 8.704 51.6394 8.688C51.4794 8.672 51.3114 8.664 51.1354 8.664C50.7514 8.664 50.3994 8.712 50.0794 8.808C49.7594 8.888 49.4714 9.024 49.2154 9.216C48.9594 9.392 48.7274 9.624 48.5194 9.912C48.3114 10.2 48.1114 10.56 47.9194 10.992V9.504C48.1434 8.736 48.4154 8.056 48.7354 7.464C49.0554 6.872 49.4554 6.408 49.9354 6.072C50.4154 5.736 50.9914 5.568 51.6634 5.568C51.8554 5.568 52.0234 5.576 52.1674 5.592C52.3274 5.608 52.4474 5.632 52.5274 5.664ZM43.2154 18V16.632H43.2634C43.6954 16.632 44.0474 16.584 44.3194 16.488C44.6074 16.392 44.7514 16.184 44.7514 15.864V8.088C44.7514 7.896 44.7034 7.752 44.6074 7.656C44.5114 7.56 44.3674 7.48 44.1754 7.416C43.9834 7.336 43.7354 7.264 43.4314 7.2L43.2154 7.152V5.736H48.1114V9.504L48.3754 9.24V16.08C48.3754 16.24 48.4714 16.368 48.6634 16.464C48.8714 16.544 49.1034 16.592 49.3594 16.608C49.6314 16.624 49.8714 16.632 50.0794 16.632H50.3434V18H43.2154ZM54.2344 7.368V5.856H54.3304C54.7144 5.856 55.0504 5.832 55.3384 5.784C55.6264 5.72 55.8424 5.608 55.9864 5.448C56.1464 5.288 56.2264 5.064 56.2264 4.776L58.4344 5.736H62.9704V7.368H54.2344ZM59.7064 13.776C59.7064 14.416 59.7784 14.936 59.9224 15.336C60.0824 15.72 60.2984 16 60.5704 16.176C60.8584 16.336 61.2024 16.416 61.6024 16.416C61.9224 16.416 62.2184 16.384 62.4904 16.32C62.7784 16.24 63.0024 16.184 63.1624 16.152V17.832C63.0184 17.896 62.8264 17.96 62.5864 18.024C62.3624 18.088 62.0984 18.136 61.7944 18.168C61.4904 18.216 61.1544 18.24 60.7864 18.24C59.9224 18.24 59.1304 18.112 58.4104 17.856C57.6904 17.584 57.1144 17.128 56.6824 16.488C56.2664 15.832 56.0584 14.952 56.0584 13.848V6.168L56.2264 6L56.2504 2.4H59.7064V13.776ZM70.1831 0.36V16.416C70.1831 16.464 70.2551 16.512 70.3991 16.56C70.5431 16.592 70.7111 16.616 70.9031 16.632C71.1111 16.632 71.3031 16.632 71.4791 16.632H71.5511V18H64.9991V16.632H65.0471C65.3351 16.632 65.5911 16.616 65.8151 16.584C66.0391 16.536 66.2151 16.456 66.3431 16.344C66.4871 16.232 66.5591 16.072 66.5591 15.864V2.712C66.5591 2.504 66.5111 2.352 66.4151 2.256C66.3191 2.144 66.1751 2.056 65.9831 1.992C65.7911 1.928 65.5431 1.864 65.2391 1.8L64.9991 1.752V0.36H70.1831ZM79.7591 18H73.2311V16.632H73.2551C73.4311 16.632 73.6231 16.632 73.8311 16.632C74.0391 16.616 74.2151 16.592 74.3591 16.56C74.5191 16.512 74.5991 16.464 74.5991 16.416V9.624C74.5991 9.144 74.5431 8.76 74.4311 8.472C74.3351 8.168 74.1751 7.944 73.9511 7.8C73.7271 7.656 73.4231 7.584 73.0391 7.584C72.5911 7.584 72.1751 7.696 71.7911 7.92C71.4071 8.128 71.0391 8.44 70.6871 8.856C70.3511 9.272 70.0231 9.792 69.7031 10.416V8.352C70.0551 7.744 70.4471 7.232 70.8791 6.816C71.3271 6.384 71.8231 6.056 72.3671 5.832C72.9271 5.608 73.5431 5.496 74.2151 5.496C75.0311 5.496 75.7351 5.648 76.3271 5.952C76.9351 6.256 77.3991 6.704 77.7191 7.296C78.0551 7.888 78.2231 8.64 78.2231 9.552V15.864C78.2231 16.184 78.3671 16.392 78.6551 16.488C78.9431 16.584 79.2951 16.632 79.7111 16.632H79.7591V18Z" fill="#190959"/>
</svg>
