<svg width="40" height="40" viewBox="0 0 40 40" fill="none" xmlns="http://www.w3.org/2000/svg">
<path d="M19.4346 1.1788C18.0394 1.79568 13.5275 4.02669 3.08473 9.60694C2.57961 9.87685 2.1342 10.2571 1.79005 10.7148C1.27727 11.3969 1 12.2271 1 13.0804V27.3774C1 28.2035 1.23261 29.0129 1.67119 29.713C2.09096 30.383 2.68356 30.9275 3.38663 31.2892L17.0412 38.3138C17.9177 38.7648 18.8892 39 19.875 39C20.7373 39 21.5869 38.7921 22.3517 38.394L36.2838 31.1419C36.7991 30.8737 37.2641 30.5186 37.6585 30.0921C38.521 29.1596 39 27.9361 39 26.666V13.8614C39 12.5273 38.4342 11.2559 37.4431 10.3628C37.1901 10.1349 36.9132 9.93506 36.6171 9.76684L21.9126 1.412C21.4374 1.14197 20.9001 1 20.3535 1C20.0363 1 19.7247 1.05053 19.4346 1.1788Z" fill="#2A5CC5" stroke="#2A5CC5"/>
<path d="M11.8961 14.5134L13.0139 9H31L29.679 16.8686H24.903L25.1062 14.5134H20.0762L19.3649 18.3139H24.3949L23.7344 22.0608H18.5012L18.0947 25.3796H19.3649L18.5012 31H9L10.1178 25.3796H11.4896L13.5727 14.5134H11.8961Z" fill="white" stroke="white"/>
</svg>
