<svg width="64" height="19" viewBox="0 0 64 19" fill="none" xmlns="http://www.w3.org/2000/svg">
<path d="M0.552 5.736H9.624V7.368H0.552V5.736ZM10.416 0.263999V2.04C10.224 1.976 9.96 1.896 9.624 1.8C9.288 1.704 8.928 1.656 8.544 1.656C8.096 1.656 7.704 1.736 7.368 1.896C7.048 2.056 6.792 2.336 6.6 2.736C6.424 3.12 6.336 3.656 6.336 4.344V16.416C6.336 16.464 6.424 16.512 6.6 16.56C6.792 16.592 7.032 16.616 7.32 16.632C7.608 16.632 7.928 16.632 8.28 16.632H8.544V18H0.768V16.632H1.032C1.56 16.632 1.968 16.576 2.256 16.464C2.56 16.352 2.712 16.144 2.712 15.84V4.608C2.712 3.44 2.96 2.528 3.456 1.872C3.968 1.2 4.632 0.719999 5.448 0.431999C6.28 0.143999 7.176 -1.43051e-06 8.136 -1.43051e-06C8.616 -1.43051e-06 9.064 0.0239987 9.48 0.0719991C9.896 0.119999 10.208 0.184 10.416 0.263999ZM24.7054 11.88C24.7054 13.128 24.4254 14.232 23.8654 15.192C23.3054 16.152 22.5134 16.904 21.4894 17.448C20.4814 17.976 19.3054 18.24 17.9614 18.24C16.6014 18.24 15.4094 17.976 14.3854 17.448C13.3774 16.904 12.5934 16.152 12.0334 15.192C11.4894 14.232 11.2174 13.128 11.2174 11.88C11.2174 10.936 11.3694 10.072 11.6734 9.288C11.9934 8.504 12.4494 7.832 13.0414 7.272C13.6494 6.712 14.3614 6.28 15.1774 5.976C16.0094 5.656 16.9374 5.496 17.9614 5.496C18.9694 5.496 19.8814 5.656 20.6974 5.976C21.5294 6.28 22.2414 6.712 22.8334 7.272C23.4414 7.832 23.9054 8.504 24.2254 9.288C24.5454 10.072 24.7054 10.936 24.7054 11.88ZM14.9614 11.88C14.9614 12.856 15.0814 13.696 15.3214 14.4C15.5614 15.104 15.9054 15.64 16.3534 16.008C16.8014 16.376 17.3374 16.56 17.9614 16.56C18.5854 16.56 19.1214 16.376 19.5694 16.008C20.0174 15.64 20.3534 15.104 20.5774 14.4C20.8174 13.696 20.9374 12.856 20.9374 11.88C20.9374 10.872 20.8174 10.024 20.5774 9.336C20.3534 8.648 20.0174 8.12 19.5694 7.752C19.1214 7.384 18.5854 7.2 17.9614 7.2C17.3374 7.2 16.8014 7.384 16.3534 7.752C15.9054 8.12 15.5614 8.648 15.3214 9.336C15.0814 10.024 14.9614 10.872 14.9614 11.88ZM36.2918 5.664V8.856C36.1798 8.824 36.0438 8.792 35.8838 8.76C35.7398 8.728 35.5798 8.704 35.4038 8.688C35.2438 8.672 35.0758 8.664 34.8998 8.664C34.5158 8.664 34.1638 8.712 33.8438 8.808C33.5238 8.888 33.2358 9.024 32.9798 9.216C32.7238 9.392 32.4918 9.624 32.2838 9.912C32.0758 10.2 31.8758 10.56 31.6838 10.992V9.504C31.9078 8.736 32.1798 8.056 32.4998 7.464C32.8198 6.872 33.2198 6.408 33.6998 6.072C34.1798 5.736 34.7558 5.568 35.4278 5.568C35.6198 5.568 35.7878 5.576 35.9318 5.592C36.0918 5.608 36.2118 5.632 36.2918 5.664ZM26.9798 18V16.632H27.0278C27.4598 16.632 27.8118 16.584 28.0838 16.488C28.3718 16.392 28.5158 16.184 28.5158 15.864V8.088C28.5158 7.896 28.4678 7.752 28.3718 7.656C28.2758 7.56 28.1318 7.48 27.9398 7.416C27.7478 7.336 27.4998 7.264 27.1958 7.2L26.9798 7.152V5.736H31.8758V9.504L32.1398 9.24V16.08C32.1398 16.24 32.2358 16.368 32.4278 16.464C32.6358 16.544 32.8678 16.592 33.1238 16.608C33.3958 16.624 33.6358 16.632 33.8438 16.632H34.1078V18H26.9798ZM37.9987 7.368V5.856H38.0947C38.4787 5.856 38.8147 5.832 39.1027 5.784C39.3907 5.72 39.6067 5.608 39.7507 5.448C39.9107 5.288 39.9908 5.064 39.9908 4.776L42.1988 5.736H46.7348V7.368H37.9987ZM43.4708 13.776C43.4708 14.416 43.5428 14.936 43.6868 15.336C43.8468 15.72 44.0628 16 44.3348 16.176C44.6228 16.336 44.9667 16.416 45.3668 16.416C45.6868 16.416 45.9828 16.384 46.2548 16.32C46.5428 16.24 46.7668 16.184 46.9267 16.152V17.832C46.7828 17.896 46.5908 17.96 46.3508 18.024C46.1268 18.088 45.8628 18.136 45.5588 18.168C45.2548 18.216 44.9188 18.24 44.5508 18.24C43.6868 18.24 42.8947 18.112 42.1747 17.856C41.4547 17.584 40.8787 17.128 40.4468 16.488C40.0307 15.832 39.8227 14.952 39.8227 13.848V6.168L39.9908 6L40.0147 2.4H43.4708V13.776ZM53.9475 0.36V16.416C53.9475 16.464 54.0195 16.512 54.1635 16.56C54.3075 16.592 54.4755 16.616 54.6675 16.632C54.8755 16.632 55.0675 16.632 55.2435 16.632H55.3155V18H48.7635V16.632H48.8115C49.0995 16.632 49.3555 16.616 49.5795 16.584C49.8035 16.536 49.9795 16.456 50.1075 16.344C50.2515 16.232 50.3235 16.072 50.3235 15.864V2.712C50.3235 2.504 50.2755 2.352 50.1795 2.256C50.0835 2.144 49.9395 2.056 49.7475 1.992C49.5555 1.928 49.3075 1.864 49.0035 1.8L48.7635 1.752V0.36H53.9475ZM63.5235 18H56.9955V16.632H57.0195C57.1955 16.632 57.3875 16.632 57.5955 16.632C57.8035 16.616 57.9795 16.592 58.1235 16.56C58.2835 16.512 58.3635 16.464 58.3635 16.416V9.624C58.3635 9.144 58.3075 8.76 58.1955 8.472C58.0995 8.168 57.9395 7.944 57.7155 7.8C57.4915 7.656 57.1875 7.584 56.8035 7.584C56.3555 7.584 55.9395 7.696 55.5555 7.92C55.1715 8.128 54.8035 8.44 54.4515 8.856C54.1155 9.272 53.7875 9.792 53.4675 10.416V8.352C53.8195 7.744 54.2115 7.232 54.6435 6.816C55.0915 6.384 55.5875 6.056 56.1315 5.832C56.6915 5.608 57.3075 5.496 57.9795 5.496C58.7955 5.496 59.4995 5.648 60.0915 5.952C60.6995 6.256 61.1635 6.704 61.4835 7.296C61.8195 7.888 61.9875 8.64 61.9875 9.552V15.864C61.9875 16.184 62.1315 16.392 62.4195 16.488C62.7075 16.584 63.0595 16.632 63.4755 16.632H63.5235V18Z" fill="#190959"/>
</svg>
