<svg width="21" height="20" viewBox="0 0 21 20" fill="none" xmlns="http://www.w3.org/2000/svg">
<path d="M10.4016 0C4.88161 0 0.401611 4.48 0.401611 10C0.401611 15.52 4.88161 20 10.4016 20C15.9216 20 20.4016 15.52 20.4016 10C20.4016 4.48 15.9216 0 10.4016 0ZM11.4016 17H9.40161V15H11.4016V17ZM13.4716 9.25L12.5716 10.17C11.8516 10.9 11.4016 11.5 11.4016 13H9.40161V12.5C9.40161 11.4 9.85161 10.4 10.5716 9.67L11.8116 8.41C12.1816 8.05 12.4016 7.55 12.4016 7C12.4016 5.9 11.5016 5 10.4016 5C9.30161 5 8.40161 5.9 8.40161 7H6.40161C6.40161 4.79 8.19161 3 10.4016 3C12.6116 3 14.4016 4.79 14.4016 7C14.4016 7.88 14.0416 8.68 13.4716 9.25Z" fill="#5B5E65"/>
</svg>
