<svg width="18" height="20" viewBox="0 0 18 20" fill="none" xmlns="http://www.w3.org/2000/svg">
<path d="M12.5 12.6999H11.71L11.43 12.4029C12.41 11.1489 13 9.52094 13 7.74994C13 3.80094 10.09 0.599945 6.5 0.599945C2.91 0.599945 0 3.80094 0 7.74994C0 11.6989 2.91 14.8999 6.5 14.8999C8.11 14.8999 9.59 14.2509 10.73 13.1729L11 13.4809V14.3499L16 19.8389L17.49 18.1999L12.5 12.6999ZM6.5 12.6999C4.01 12.6999 2 10.4889 2 7.74994C2 5.01094 4.01 2.79994 6.5 2.79994C8.99 2.79994 11 5.01094 11 7.74994C11 10.4889 8.99 12.6999 6.5 12.6999Z" fill="#CCCCCC"/>
</svg>
